<?xml version="1.0" standalone="no"?>
<!DOCTYPE svg PUBLIC "-//W3C//DTD SVG 20010904//EN"
 "http://www.w3.org/TR/2001/REC-SVG-20010904/DTD/svg10.dtd">
<svg version="1.0" xmlns="http://www.w3.org/2000/svg"
 width="389.000000pt" height="389.000000pt" viewBox="0 0 389.000000 389.000000"
 preserveAspectRatio="xMidYMid meet">
<metadata>
Created by potrace 1.14, written by Peter Selinger 2001-2017
</metadata>
<g transform="translate(0.000000,389.000000) scale(0.100000,-0.100000)"
fill="#000000" stroke="none">
<path d="M2205 2856 c-33 -8 -83 -23 -112 -34 -51 -19 -183 -89 -183 -97 0 -2
39 12 87 32 80 32 196 63 233 62 8 0 -20 -13 -64 -29 -213 -79 -355 -204 -462
-404 -25 -47 -44 -86 -42 -86 3 0 19 22 36 49 42 64 67 85 41 34 -32 -62 -21
-68 22 -11 56 71 102 119 174 181 51 45 47 38 -34 -48 -138 -147 -228 -283
-256 -385 -5 -20 -2 -18 19 13 27 38 54 51 41 20 -30 -72 -45 -143 -44 -211
l0 -77 18 85 c63 295 248 534 512 659 109 53 182 71 299 78 97 5 120 15 120
53 0 20 -88 77 -156 101 -72 26 -176 32 -249 15z"/>
<path d="M2328 2333 c44 -56 62 -103 62 -160 -1 -219 -368 -460 -897 -588
-221 -53 -219 -53 -248 -87 -22 -26 -25 -38 -20 -67 11 -59 53 -120 148 -214
129 -127 180 -148 298 -123 37 8 91 27 120 42 47 23 52 24 36 6 -25 -27 -106
-61 -180 -74 l-62 -12 40 -9 c84 -19 262 10 427 69 151 55 335 161 433 249 49
44 30 36 -50 -23 -86 -62 -211 -121 -270 -128 l-50 -5 70 24 c103 35 183 78
266 145 122 96 203 221 214 328 l5 49 -18 -55 c-25 -74 -56 -132 -93 -175 -45
-51 -53 -43 -21 23 62 123 77 186 77 322 -1 107 -4 133 -24 180 -44 107 -135
214 -246 290 l-50 34 33 -41z m2 -419 c0 -3 -33 -40 -72 -81 -66 -68 -70 -74
-43 -67 17 4 43 13 58 21 27 14 28 13 18 -6 -17 -31 -90 -89 -173 -138 -43
-25 -78 -47 -78 -49 0 -1 12 1 28 5 49 14 145 68 224 124 83 60 95 53 19 -11
-142 -120 -486 -295 -681 -346 -29 -8 -26 -6 73 48 38 21 67 40 65 42 -2 2
-26 -5 -54 -15 -27 -10 -65 -22 -84 -25 -30 -6 -26 -2 29 28 87 48 94 57 27
35 -52 -18 -177 -41 -184 -34 -2 2 21 11 50 21 39 12 48 19 34 23 -13 5 -3 11
36 24 30 9 62 23 73 31 18 13 15 15 -35 23 l-55 10 40 7 c183 33 432 151 624
295 57 43 61 45 61 35z"/>
</g>
</svg>
